<svg width="18" height="20" viewBox="0 0 18 20" fill="none" xmlns="http://www.w3.org/2000/svg">
<path d="M12.5474 2.00422C12.2044 1.39438 11.7048 0.887124 11.1003 0.534806C10.4958 0.182488 9.80824 -0.00212591 9.10856 1.847e-05C8.40888 0.00216285 7.72244 0.190988 7.12011 0.547004C6.51777 0.903021 6.02136 1.41333 5.6821 2.02526C5.35197 2.61875 5.19083 3.29137 5.2162 3.97002C5.23724 4.36077 5.27631 4.71846 5.31539 5.07616C4.3385 5.07616 3.36161 5.05211 2.38472 5.0491C2.19492 5.04911 2.01166 5.11847 1.8694 5.24412C1.72714 5.36977 1.63568 5.54307 1.61223 5.73142C1.04514 10.2181 0.508098 14.7098 0.00111883 19.2065V19.2275C-0.000372942 19.2545 -0.000372942 19.2816 0.00111883 19.3087C0.0042794 19.4936 0.0801883 19.6699 0.212402 19.7993C0.344615 19.9287 0.522486 20.0008 0.707484 20C6.32233 19.9399 11.9161 19.7205 17.2815 19.5401C17.5821 19.5401 17.6873 19.4229 17.54 19.2936C17.3055 19.1378 17.031 19.0533 16.7495 19.0502H16.6623C11.4653 18.8818 6.47262 18.6774 1.50402 18.6083C2.05108 14.6086 2.57309 10.6068 3.07005 6.60311C7.13991 6.60311 11.2098 6.56804 15.2796 6.4979C15.8417 10.4475 16.515 14.4062 17.1823 18.5362C17.2262 18.8157 17.3481 19.0773 17.534 19.2906C17.6813 19.4229 17.7775 19.2906 17.7564 19.0111V18.9299C17.3807 14.6617 17.017 10.2131 16.518 5.74344C16.5004 5.5853 16.4257 5.43903 16.3077 5.33218C16.1898 5.22534 16.0369 5.16528 15.8778 5.16332H15.8507C14.8739 5.14829 13.897 5.14829 12.9201 5.13627C12.9652 4.75453 13.0073 4.36979 13.0283 3.93395C13.0468 3.2589 12.8805 2.59163 12.5474 2.00422ZM6.3043 4.00308C6.40503 3.32862 6.74505 2.7129 7.26225 2.26842C7.77944 1.82394 8.43928 1.58036 9.12122 1.58218C9.80317 1.58401 10.4617 1.83111 10.9765 2.27835C11.4913 2.72559 11.828 3.34312 11.9252 4.01811C11.9672 4.38783 12.0063 4.76055 12.0484 5.13327C10.0946 5.10922 8.13584 5.09219 6.17204 5.08217C6.22314 4.72147 6.26522 4.36077 6.3043 4.00308Z" fill="white"/>
<path d="M5.75178 10.0358C6.2166 10.0358 6.59341 9.65898 6.59341 9.19417C6.59341 8.72935 6.2166 8.35254 5.75178 8.35254C5.28696 8.35254 4.91016 8.72935 4.91016 9.19417C4.91016 9.65898 5.28696 10.0358 5.75178 10.0358Z" fill="white"/>
<path d="M12.4842 10.0358C12.949 10.0358 13.3258 9.65898 13.3258 9.19417C13.3258 8.72935 12.949 8.35254 12.4842 8.35254C12.0194 8.35254 11.6426 8.72935 11.6426 9.19417C11.6426 9.65898 12.0194 10.0358 12.4842 10.0358Z" fill="white"/>
</svg>
